<?xml version="1.0" encoding="utf-8"?>
<!-- Generator: Adobe Illustrator 27.0.1, SVG Export Plug-In . SVG Version: 6.00 Build 0)  -->
<svg version="1.1" id="layer" xmlns="http://www.w3.org/2000/svg" xmlns:xlink="http://www.w3.org/1999/xlink" x="0px" y="0px"
	 viewBox="0 0 605.5 163.3" style="enable-background:new 0 0 605.5 163.3;" xml:space="preserve">
<style type="text/css">
	.st0{fill:#00A651;}
	.st1{fill:none;stroke:#009844;stroke-width:1.3881;}
	.st2{fill:#FFFFFF;}
</style>
<path class="st0" d="M517.4,2.4C518,3.2,518,2.1,517.4,2.4c94.1,0.8,89.1,83.4,81.9,105.6c-9.9,27.7-36,53.2-88.4,52.9H87.4
	c-43.9-1.2-74.1-25.6-81-53.8C-4.9,75.5,6.9,5.5,83.7,2.4h27.2H517.4z"/>
<path class="st1" d="M517.4,2.4C518,3.2,518,2.1,517.4,2.4c94.1,0.8,89.1,83.4,81.9,105.6c-9.9,27.7-36,53.2-88.4,52.9H87.4
	c-43.9-1.2-74.1-25.6-81-53.8C-4.9,75.5,6.9,5.5,83.7,2.4h27.2H517.4z"/>
<path class="st2" d="M266.3,53.4c9.4,17,3.1,38.8-8.7,52.7c-13.4,17-37.8,20.3-56.4,15.9c-12.3-3.8-18.2-12.3-20.4-21.8
	c-2.7-19.1,4.4-37.4,18-50.8c12.1-11.6,30.2-13.9,46.8-10.8C253.4,40.8,261.6,45.5,266.3,53.4"/>
<path class="st2" d="M127,118.2c-6.4,2.9-11.4,3.7-22.9,3.8H57.6l16.9-81h49.7c19.2,0,24.4,14.9,18.3,26.9
	c-3.1,6.1-8.3,9.1-12.6,10.9c-0.1,0.1,0.1-0.1,0-0.1c-0.1,0.4,0.2,0.2,0,0c-0.1,0.1-0.1,0.2,0,0C148.8,86.5,143.3,110.8,127,118.2"
	/>
<polygon class="st2" points="166.2,122.1 143.5,122.1 161.2,41.5 183.5,41.5 "/>
<path class="st2" d="M364.8,41c40.4-0.6,29.1,38.1,6.6,44.3c0,0.2,0,0.1,0,0c13.3,4.1,12.3,22.8,11.3,36.9h-26.2
	c0.2-4.3,12.4-33.2-6.2-32.4h-18.2c0.1,0.1-4.5,21.6-6.9,32.4h-22.1c0.1,0.1,6.6-32.3,6.7-32.4H286l3.5-16.2h23.7l7.5-32.5L364.8,41
	"/>
<path class="st0" d="M112.7,56.1c15.6,0,8.9,15.8,0.6,16.1c-6.3,0-23.6,0-23.5,0.1L93,56C93.1,56.2,112.7,56.1,112.7,56.1"/>
<path class="st0" d="M242.7,60.2c8.2,7.9,2.8,24.6-2.7,33.7c-6,9.3-12.5,11.3-15.4,12c-9.1,1.7-14.9-1.3-17.4-5.7
	c-4.4-7-1.5-27.9,7.8-37.3C221.4,55.1,235.2,53.1,242.7,60.2"/>
<path class="st0" d="M357.2,56.4c15.2,0.9,12.1,16.7,1.1,17.2c0.2,0.3-22.7-0.1-22.7,0.1l3.9-17.3C339.5,56.4,357.2,56.4,357.2,56.4
	"/>
<path class="st0" d="M106.3,87.1c20.5-0.6,18.2,20,1.7,18.8H82.5c0.1-0.1,4.2-18.8,4.2-18.8S106.3,87.1,106.3,87.1z"/>
<path class="st2" d="M464.6,121.9l17.2-80.5h42.3c20.4,1.4,28,13.6,30.5,24.6c3.4,18.4,0.2,55.1-46.2,55.9c0-0.1-0.2,0,0,0H464.6z"
	/>
<path class="st2" d="M468.7,121.9h-22.4c0,0-3.1-13.6-3.3-13.8h-36.4c0.1,0.2-8.4,13.8-8.4,14h-21.1l48.6-80.9c0,0,25.6,0,25.7,0
	C451.4,41.2,468.7,121.9,468.7,121.9"/>
<path class="st0" d="M515.4,56.3c24.4,0,23.8,50.3-12.1,50.8h-13.2l10.8-50.7C500.9,56.3,515.4,56.3,515.4,56.3"/>
<polygon class="st0" points="416.3,92.2 433.5,62.8 439.5,92.2 "/>
</svg>
